<svg xmlns="http://www.w3.org/2000/svg" xmlns:xlink="http://www.w3.org/1999/xlink" xml:space="preserve" version="1.1" style="shape-rendering:geometricPrecision;text-rendering:geometricPrecision;image-rendering:optimizeQuality;" viewBox="0 0 141 176.25" x="0px" y="0px" fill-rule="evenodd" clip-rule="evenodd"><defs><style type="text/css">
   
    .fil0 {fill:black}
    .fil1 {fill:black}
    .fil2 {fill:black;fill-rule:nonzero}
   
  </style></defs><g><path class="fil0" d="M70 0c-39,0 -70,31 -70,70 0,39 31,71 70,71 39,0 71,-32 71,-71 0,-39 -32,-70 -71,-70zm0 10c34,0 61,27 61,60 0,34 -27,61 -61,61 -33,0 -60,-27 -60,-61 0,-33 27,-60 60,-60z"/><circle class="fil1" cx="97" cy="52" r="10"/><circle class="fil1" cx="44" cy="52" r="10"/><path class="fil1" d="M65 71c-2,4 -1,9 3,11 4,3 24,4 24,4 0,0 -12,-16 -16,-18 -4,-3 -9,-1 -11,3z"/><path class="fil2" d="M45 93c-1,-3 -4,-3 -7,-2 -2,1 -3,4 -1,7 3,6 8,11 14,14l0 0c6,3 12,5 19,5 7,0 14,-2 20,-5l0 0c6,-3 11,-8 14,-14 2,-3 1,-6 -2,-7 -2,-1 -5,-1 -6,2 -3,4 -7,8 -11,10l0 0c-4,3 -9,4 -15,4 -5,0 -10,-1 -14,-4l0 0c-5,-2 -8,-6 -11,-10z"/></g></svg>